<svg xmlns="http://www.w3.org/2000/svg" viewBox="0 0 64 64" role="img" aria-labelledby="title desc">
  <title id="title">Lineup Surf Forecast</title>
  <desc id="desc">The three-wave Lineup mark used in the app header.</desc>
  <g transform="translate(8 8) scale(2)" fill="none" stroke="#22d3ee" stroke-width="2" stroke-linecap="round" stroke-linejoin="round">
    <path d="M2 6c.5-.5 1.5-1 3-1s2.5 1 4 1 2.5-1 4-1 2.5 1 4 1 2.5-.5 3-1"/>
    <path d="M2 12c.5-.5 1.5-1 3-1s2.5 1 4 1 2.5-1 4-1 2.5 1 4 1 2.5-.5 3-1"/>
    <path d="M2 18c.5-.5 1.5-1 3-1s2.5 1 4 1 2.5-1 4-1 2.5 1 4 1 2.5-.5 3-1"/>
  </g>
</svg>
